# xmcd
#
# Track frame offsets: 
#        150
#        19898
#        46810
#        67135
#        95618
#        124440
#        148290
#        198268
#        222415
#        245940
#        259478
#
# Disc length: 3639 seconds
#
# Revision: 17
# Processed by: cddbd v1.5.2PL0 Copyright (c) Steve Scherf et al.
# Submitted via: ExactAudioCopy v1.0b3
#
DISCID=bb0e350b
DTITLE=ERIC CLAPTON - CROSSROADS 2 (LIVE IN THE SEVENTIES)
DYEAR=1996
DGENRE=Blues
TTITLE0=Loving You Is Sweeter Than Ever (Victoria Hall, Hanley, Novemb
TTITLE0=er 28, 1978)
TTITLE1=Worried Life Blues (Victoria Hall, Hanley, November 28, 1978)
TTITLE2=Tulsa Time (Apollo Theatre, Glasgow, November 24, 1978)
TTITLE3=Early In The Morning (Victoria Hall, Hanley, November 28, 1978
TTITLE3=)
TTITLE4=Wonderful Tonight (Apollo Theatre, Glasgow, November 24, 1978)
TTITLE5=Kind Hearted Woman (Apollo Theatre, Glasgow, November 24, 1978
TTITLE5=)
TTITLE6=Double Trouble (Victoria Hall, Hanley, November 28, 1978)
TTITLE7=Crossroads (Victoria Hall, Hanley, November 28, 1978)
TTITLE8=To Make Somebody Happy (Olympic Sound Studios, London, Decembe
TTITLE8=r 28, 1978)
TTITLE9=Cryin' (Olympic Sound Studios, London, December 28, 1978)
TTITLE10=Water On The Ground (Olympic Sound Studios, London, December 
TTITLE10=28, 1978)
EXTD=YEAR: 1996
EXTT0=
EXTT1=
EXTT2=
EXTT3=
EXTT4=
EXTT5=
EXTT6=
EXTT7=
EXTT8=
EXTT9=
EXTT10=
PLAYORDER=
